<svg viewBox="0 0 670 375" xmlns="http://www.w3.org/2000/svg"
     font-family="Jost, system-ui, sans-serif" font-size="10.5">

  <defs>
    <marker id="arr" markerWidth="8" markerHeight="8" refX="6" refY="3" orient="auto">
      <path d="M0,0 L0,6 L7,3 z" fill="#444"/>
    </marker>
    <marker id="arr-dash" markerWidth="8" markerHeight="8" refX="6" refY="3" orient="auto">
      <path d="M0,0 L0,6 L7,3 z" fill="#888"/>
    </marker>
  </defs>

  <!-- Column background bands — all width=160 -->
  <!-- Col1: x=152 center=232 right=312  -->
  <!-- Col2: x=322 center=402 right=482  -->
  <!-- Col3: x=492 center=572 right=652  -->
  <rect x="152" y="30" width="160" height="264" rx="4" fill="#f5f5f5" stroke="#ccc" stroke-width="1"/>
  <rect x="322" y="30" width="160" height="264" rx="4" fill="#f5f5f5" stroke="#ccc" stroke-width="1"/>
  <rect x="492" y="30" width="160" height="264" rx="4" fill="#f5f5f5" stroke="#ccc" stroke-width="1"/>

  <!-- Agile phase headers -->
  <text x="232" y="22" text-anchor="middle" font-weight="700" font-size="11" fill="#555">Sprint planning</text>
  <text x="402" y="22" text-anchor="middle" font-weight="700" font-size="11" fill="#555">Sprint</text>
  <text x="572" y="22" text-anchor="middle" font-weight="700" font-size="10" fill="#555">Backlog / Retrospective</text>

  <!-- ── Module rows ─────────────────────────────────────── -->
  <!-- Boxes: col1 x=158 w=148 / col2 x=328 w=148 / col3 x=498 w=148 -->
  <!-- Centers: 232 / 402 / 572 -->
  <!-- Arrows col1→col2: x1=306 x2=322 / col2→col3: x1=476 x2=492 -->

  <!-- Module 1: Data Ethics (red) -->
  <text x="2"   y="59"  dominant-baseline="middle" font-size="9" fill="#555">Wk 1–2</text>
  <text x="2"   y="72"  dominant-baseline="middle" font-size="9" fill="#555" font-style="italic">Data Ethics</text>
  <rect x="158" y="46"  width="148" height="38" rx="4" fill="#fecaca" stroke="#dc2626" stroke-width="1.5"/>
  <text x="232" y="62"  text-anchor="middle" dominant-baseline="middle" font-size="9.5">iRAT / tRAT</text>
  <text x="232" y="76"  text-anchor="middle" dominant-baseline="middle" font-size="8.5" fill="#666">readiness</text>
  <line x1="306" y1="65" x2="322" y2="65" stroke="#444" stroke-width="1.5" marker-end="url(#arr)"/>
  <rect x="328" y="46"  width="148" height="38" rx="4" fill="#fecaca" stroke="#dc2626" stroke-width="1.5"/>
  <text x="402" y="62"  text-anchor="middle" dominant-baseline="middle" font-size="9.5">tAPP</text>
  <text x="402" y="76"  text-anchor="middle" dominant-baseline="middle" font-size="8.5" fill="#666">team application</text>
  <path d="M402,46 C385,30 419,30 402,46" stroke="#dc2626" stroke-width="1.5" fill="none" marker-end="url(#arr)"/>
  <line x1="476" y1="65" x2="492" y2="65" stroke="#444" stroke-width="1.5" marker-end="url(#arr)"/>
  <rect x="498" y="46"  width="148" height="38" rx="4" fill="#fecaca" stroke="#dc2626" stroke-width="1.5"/>
  <text x="572" y="62"  text-anchor="middle" dominant-baseline="middle" font-size="9.5">iREF</text>
  <text x="572" y="76"  text-anchor="middle" dominant-baseline="middle" font-size="8.5" fill="#666">reflection</text>

  <!-- Module 2: LLMs (orange) -->
  <text x="2"   y="109" dominant-baseline="middle" font-size="9" fill="#555">Wk 3–4</text>
  <text x="2"   y="122" dominant-baseline="middle" font-size="9" fill="#555" font-style="italic">LLMs</text>
  <rect x="158" y="96"  width="148" height="38" rx="4" fill="#fed7aa" stroke="#ea580c" stroke-width="1.5"/>
  <text x="232" y="112" text-anchor="middle" dominant-baseline="middle" font-size="9.5">iRAT / tRAT</text>
  <text x="232" y="126" text-anchor="middle" dominant-baseline="middle" font-size="8.5" fill="#666">readiness</text>
  <line x1="306" y1="115" x2="322" y2="115" stroke="#444" stroke-width="1.5" marker-end="url(#arr)"/>
  <rect x="328" y="96"  width="148" height="38" rx="4" fill="#fed7aa" stroke="#ea580c" stroke-width="1.5"/>
  <text x="402" y="112" text-anchor="middle" dominant-baseline="middle" font-size="9.5">tAPP</text>
  <text x="402" y="126" text-anchor="middle" dominant-baseline="middle" font-size="8.5" fill="#666">team application</text>
  <path d="M402,96 C385,80 419,80 402,96" stroke="#ea580c" stroke-width="1.5" fill="none" marker-end="url(#arr)"/>
  <line x1="476" y1="115" x2="492" y2="115" stroke="#444" stroke-width="1.5" marker-end="url(#arr)"/>
  <rect x="498" y="96"  width="148" height="38" rx="4" fill="#fed7aa" stroke="#ea580c" stroke-width="1.5"/>
  <text x="572" y="112" text-anchor="middle" dominant-baseline="middle" font-size="9.5">iREF</text>
  <text x="572" y="126" text-anchor="middle" dominant-baseline="middle" font-size="8.5" fill="#666">reflection</text>

  <!-- Module 3: Supervised Learning (yellow) -->
  <text x="2"   y="159" dominant-baseline="middle" font-size="9" fill="#555">Wk 5–6</text>
  <text x="2"   y="172" dominant-baseline="middle" font-size="9" fill="#555" font-style="italic">Supervised</text>
  <rect x="158" y="146" width="148" height="38" rx="4" fill="#fef08a" stroke="#ca8a04" stroke-width="1.5"/>
  <text x="232" y="162" text-anchor="middle" dominant-baseline="middle" font-size="9.5">iRAT / tRAT</text>
  <text x="232" y="176" text-anchor="middle" dominant-baseline="middle" font-size="8.5" fill="#666">readiness</text>
  <line x1="306" y1="165" x2="322" y2="165" stroke="#444" stroke-width="1.5" marker-end="url(#arr)"/>
  <rect x="328" y="146" width="148" height="38" rx="4" fill="#fef08a" stroke="#ca8a04" stroke-width="1.5"/>
  <text x="402" y="162" text-anchor="middle" dominant-baseline="middle" font-size="9.5">tAPP</text>
  <text x="402" y="176" text-anchor="middle" dominant-baseline="middle" font-size="8.5" fill="#666">team application</text>
  <path d="M402,146 C385,130 419,130 402,146" stroke="#ca8a04" stroke-width="1.5" fill="none" marker-end="url(#arr)"/>
  <line x1="476" y1="165" x2="492" y2="165" stroke="#444" stroke-width="1.5" marker-end="url(#arr)"/>
  <rect x="498" y="146" width="148" height="38" rx="4" fill="#fef08a" stroke="#ca8a04" stroke-width="1.5"/>
  <text x="572" y="162" text-anchor="middle" dominant-baseline="middle" font-size="9.5">iREF</text>
  <text x="572" y="176" text-anchor="middle" dominant-baseline="middle" font-size="8.5" fill="#666">reflection</text>

  <!-- Module 4: Clustering (green) -->
  <text x="2"   y="209" dominant-baseline="middle" font-size="9" fill="#555">Wk 7–8</text>
  <text x="2"   y="222" dominant-baseline="middle" font-size="9" fill="#555" font-style="italic">Clustering</text>
  <rect x="158" y="196" width="148" height="38" rx="4" fill="#bbf7d0" stroke="#16a34a" stroke-width="1.5"/>
  <text x="232" y="212" text-anchor="middle" dominant-baseline="middle" font-size="9.5">iRAT / tRAT</text>
  <text x="232" y="226" text-anchor="middle" dominant-baseline="middle" font-size="8.5" fill="#666">readiness</text>
  <line x1="306" y1="215" x2="322" y2="215" stroke="#444" stroke-width="1.5" marker-end="url(#arr)"/>
  <rect x="328" y="196" width="148" height="38" rx="4" fill="#bbf7d0" stroke="#16a34a" stroke-width="1.5"/>
  <text x="402" y="212" text-anchor="middle" dominant-baseline="middle" font-size="9.5">tAPP</text>
  <text x="402" y="226" text-anchor="middle" dominant-baseline="middle" font-size="8.5" fill="#666">team application</text>
  <path d="M402,196 C385,180 419,180 402,196" stroke="#16a34a" stroke-width="1.5" fill="none" marker-end="url(#arr)"/>
  <line x1="476" y1="215" x2="492" y2="215" stroke="#444" stroke-width="1.5" marker-end="url(#arr)"/>
  <rect x="498" y="196" width="148" height="38" rx="4" fill="#bbf7d0" stroke="#16a34a" stroke-width="1.5"/>
  <text x="572" y="212" text-anchor="middle" dominant-baseline="middle" font-size="9.5">iREF</text>
  <text x="572" y="226" text-anchor="middle" dominant-baseline="middle" font-size="8.5" fill="#666">reflection</text>

  <!-- Module 5: Process Mining (purple) -->
  <text x="2"   y="259" dominant-baseline="middle" font-size="9" fill="#555">Wk 9–10</text>
  <text x="2"   y="272" dominant-baseline="middle" font-size="9" fill="#555" font-style="italic">Process Mining</text>
  <rect x="158" y="246" width="148" height="38" rx="4" fill="#e9d5ff" stroke="#7c3aed" stroke-width="1.5"/>
  <text x="232" y="262" text-anchor="middle" dominant-baseline="middle" font-size="9.5">iRAT / tRAT</text>
  <text x="232" y="276" text-anchor="middle" dominant-baseline="middle" font-size="8.5" fill="#666">readiness</text>
  <line x1="306" y1="265" x2="322" y2="265" stroke="#444" stroke-width="1.5" marker-end="url(#arr)"/>
  <rect x="328" y="246" width="148" height="38" rx="4" fill="#e9d5ff" stroke="#7c3aed" stroke-width="1.5"/>
  <text x="402" y="262" text-anchor="middle" dominant-baseline="middle" font-size="9.5">tAPP</text>
  <text x="402" y="276" text-anchor="middle" dominant-baseline="middle" font-size="8.5" fill="#666">team application</text>
  <path d="M402,246 C385,230 419,230 402,246" stroke="#7c3aed" stroke-width="1.5" fill="none" marker-end="url(#arr)"/>
  <line x1="476" y1="265" x2="492" y2="265" stroke="#444" stroke-width="1.5" marker-end="url(#arr)"/>
  <rect x="498" y="246" width="148" height="38" rx="4" fill="#e9d5ff" stroke="#7c3aed" stroke-width="1.5"/>
  <text x="572" y="262" text-anchor="middle" dominant-baseline="middle" font-size="9.5">iREF</text>
  <text x="572" y="276" text-anchor="middle" dominant-baseline="middle" font-size="8.5" fill="#666">reflection</text>

  <!-- ── Dashed arrows → Capstone ───────────────────────── -->
  <!-- From each tAPP right edge (x=476) to capstone -->
  <path d="M476,65  C560,65  560,295 410,311" stroke="#888" stroke-width="1.2" stroke-dasharray="5,3" fill="none" marker-end="url(#arr-dash)"/>
  <path d="M476,115 C558,115 558,298 410,311" stroke="#888" stroke-width="1.2" stroke-dasharray="5,3" fill="none" marker-end="url(#arr-dash)"/>
  <path d="M476,165 C556,165 556,300 410,311" stroke="#888" stroke-width="1.2" stroke-dasharray="5,3" fill="none" marker-end="url(#arr-dash)"/>
  <path d="M476,215 C554,215 554,302 410,311" stroke="#888" stroke-width="1.2" stroke-dasharray="5,3" fill="none" marker-end="url(#arr-dash)"/>
  <path d="M476,265 C552,265 552,304 410,311" stroke="#888" stroke-width="1.2" stroke-dasharray="5,3" fill="none" marker-end="url(#arr-dash)"/>
  <!-- From each iREF right edge (x=646) to capstone -->
  <path d="M646,65  C662,65  662,315 476,326" stroke="#888" stroke-width="1.2" stroke-dasharray="5,3" fill="none" marker-end="url(#arr-dash)"/>
  <path d="M646,115 C660,115 660,318 476,329" stroke="#888" stroke-width="1.2" stroke-dasharray="5,3" fill="none" marker-end="url(#arr-dash)"/>
  <path d="M646,165 C658,165 658,320 476,332" stroke="#888" stroke-width="1.2" stroke-dasharray="5,3" fill="none" marker-end="url(#arr-dash)"/>
  <path d="M646,215 C656,215 656,323 476,335" stroke="#888" stroke-width="1.2" stroke-dasharray="5,3" fill="none" marker-end="url(#arr-dash)"/>
  <path d="M646,265 C654,265 654,325 476,338" stroke="#888" stroke-width="1.2" stroke-dasharray="5,3" fill="none" marker-end="url(#arr-dash)"/>

  <!-- ── Capstone row (blue) ──────────────────────────── -->
  <text x="2"   y="324" dominant-baseline="middle" font-size="9" fill="#555">Wk 11–14</text>
  <text x="2"   y="337" dominant-baseline="middle" font-size="9" fill="#555" font-style="italic">Capstone</text>
  <rect x="328" y="311" width="148" height="38" rx="4" fill="#bfdbfe" stroke="#2563eb" stroke-width="1.5"/>
  <text x="402" y="327" text-anchor="middle" dominant-baseline="middle" font-size="9.5">tCAP</text>
  <text x="402" y="341" text-anchor="middle" dominant-baseline="middle" font-size="8.5" fill="#666">team capstone</text>
  <path d="M402,311 C385,295 419,295 402,311" stroke="#2563eb" stroke-width="1.5" fill="none" marker-end="url(#arr)"/>
  <line x1="476" y1="330" x2="492" y2="330" stroke="#444" stroke-width="1.5" marker-end="url(#arr)"/>
  <rect x="498" y="311" width="148" height="38" rx="4" fill="#bfdbfe" stroke="#2563eb" stroke-width="1.5"/>
  <text x="572" y="327" text-anchor="middle" dominant-baseline="middle" font-size="9.5">iCAP</text>
  <text x="572" y="341" text-anchor="middle" dominant-baseline="middle" font-size="8.5" fill="#666">reflection</text>

</svg>
