<svg viewBox="0 0 650 375" xmlns="http://www.w3.org/2000/svg"
     font-family="Jost, system-ui, sans-serif" font-size="10.5">

  <defs>
    <marker id="arr" markerWidth="8" markerHeight="8" refX="6" refY="3" orient="auto">
      <path d="M0,0 L0,6 L7,3 z" fill="#444"/>
    </marker>
    <marker id="arr-dash" markerWidth="8" markerHeight="8" refX="6" refY="3" orient="auto">
      <path d="M0,0 L0,6 L7,3 z" fill="#888"/>
    </marker>
  </defs>

  <!-- Column background bands (agile phases) -->
  <rect x="152" y="30" width="140" height="252" rx="4" fill="#f5f5f5" stroke="#ccc" stroke-width="1"/>
  <rect x="302" y="30" width="140" height="252" rx="4" fill="#f5f5f5" stroke="#ccc" stroke-width="1"/>
  <rect x="452" y="30" width="140" height="252" rx="4" fill="#f5f5f5" stroke="#ccc" stroke-width="1"/>

  <!-- Agile phase headers -->
  <text x="222" y="22" text-anchor="middle" font-weight="700" font-size="11" fill="#555">Sprint planning</text>
  <text x="372" y="22" text-anchor="middle" font-weight="700" font-size="11" fill="#555">Sprint</text>
  <text x="522" y="22" text-anchor="middle" font-weight="700" font-size="11" fill="#555">Backlog</text>

  <!-- ── Module rows ─────────────────────────────────────── -->
  <!-- Week labels x=2, node width=138, node height=38 -->
  <!-- RAT cx=222, APP cx=372, REF cx=522 -->
  <!-- Row y-centers: 65, 115, 165, 215, 265 -->

  <!-- Module 1: Data Ethics (red) -->
  <text x="2"   y="59"  dominant-baseline="middle" font-size="9" fill="#555">Wk 1–2</text>
  <text x="2"   y="72"  dominant-baseline="middle" font-size="9" fill="#555" font-style="italic">Data Ethics</text>
  <rect x="158" y="46"  width="128" height="38" rx="4" fill="#fecaca" stroke="#dc2626" stroke-width="1.5"/>
  <text x="222" y="62"  text-anchor="middle" dominant-baseline="middle" font-size="9.5">iRAT / tRAT</text>
  <text x="222" y="76"  text-anchor="middle" dominant-baseline="middle" font-size="8.5" fill="#666">readiness</text>
  <line x1="286" y1="65" x2="302" y2="65" stroke="#444" stroke-width="1.5" marker-end="url(#arr)"/>
  <rect x="308" y="46"  width="128" height="38" rx="4" fill="#fecaca" stroke="#dc2626" stroke-width="1.5"/>
  <text x="372" y="62"  text-anchor="middle" dominant-baseline="middle" font-size="9.5">tAPP</text>
  <text x="372" y="76"  text-anchor="middle" dominant-baseline="middle" font-size="8.5" fill="#666">team application</text>
  <path d="M372,46 C355,30 389,30 372,46" stroke="#dc2626" stroke-width="1.5" fill="none" marker-end="url(#arr)"/>
  <line x1="436" y1="65" x2="452" y2="65" stroke="#444" stroke-width="1.5" marker-end="url(#arr)"/>
  <rect x="458" y="46"  width="128" height="38" rx="4" fill="#fecaca" stroke="#dc2626" stroke-width="1.5"/>
  <text x="522" y="62"  text-anchor="middle" dominant-baseline="middle" font-size="9.5">iREF</text>
  <text x="522" y="76"  text-anchor="middle" dominant-baseline="middle" font-size="8.5" fill="#666">reflection</text>

  <!-- Module 2: LLMs (orange) -->
  <text x="2"   y="109" dominant-baseline="middle" font-size="9" fill="#555">Wk 3–4</text>
  <text x="2"   y="122" dominant-baseline="middle" font-size="9" fill="#555" font-style="italic">LLMs</text>
  <rect x="158" y="96"  width="128" height="38" rx="4" fill="#fed7aa" stroke="#ea580c" stroke-width="1.5"/>
  <text x="222" y="112" text-anchor="middle" dominant-baseline="middle" font-size="9.5">iRAT / tRAT</text>
  <text x="222" y="126" text-anchor="middle" dominant-baseline="middle" font-size="8.5" fill="#666">readiness</text>
  <line x1="286" y1="115" x2="302" y2="115" stroke="#444" stroke-width="1.5" marker-end="url(#arr)"/>
  <rect x="308" y="96"  width="128" height="38" rx="4" fill="#fed7aa" stroke="#ea580c" stroke-width="1.5"/>
  <text x="372" y="112" text-anchor="middle" dominant-baseline="middle" font-size="9.5">tAPP</text>
  <text x="372" y="126" text-anchor="middle" dominant-baseline="middle" font-size="8.5" fill="#666">team application</text>
  <path d="M372,96 C355,80 389,80 372,96" stroke="#ea580c" stroke-width="1.5" fill="none" marker-end="url(#arr)"/>
  <line x1="436" y1="115" x2="452" y2="115" stroke="#444" stroke-width="1.5" marker-end="url(#arr)"/>
  <rect x="458" y="96"  width="128" height="38" rx="4" fill="#fed7aa" stroke="#ea580c" stroke-width="1.5"/>
  <text x="522" y="112" text-anchor="middle" dominant-baseline="middle" font-size="9.5">iREF</text>
  <text x="522" y="126" text-anchor="middle" dominant-baseline="middle" font-size="8.5" fill="#666">reflection</text>

  <!-- Module 3: Supervised Learning (yellow) -->
  <text x="2"   y="159" dominant-baseline="middle" font-size="9" fill="#555">Wk 5–6</text>
  <text x="2"   y="172" dominant-baseline="middle" font-size="9" fill="#555" font-style="italic">Supervised</text>
  <rect x="158" y="146" width="128" height="38" rx="4" fill="#fef08a" stroke="#ca8a04" stroke-width="1.5"/>
  <text x="222" y="162" text-anchor="middle" dominant-baseline="middle" font-size="9.5">iRAT / tRAT</text>
  <text x="222" y="176" text-anchor="middle" dominant-baseline="middle" font-size="8.5" fill="#666">readiness</text>
  <line x1="286" y1="165" x2="302" y2="165" stroke="#444" stroke-width="1.5" marker-end="url(#arr)"/>
  <rect x="308" y="146" width="128" height="38" rx="4" fill="#fef08a" stroke="#ca8a04" stroke-width="1.5"/>
  <text x="372" y="162" text-anchor="middle" dominant-baseline="middle" font-size="9.5">tAPP</text>
  <text x="372" y="176" text-anchor="middle" dominant-baseline="middle" font-size="8.5" fill="#666">team application</text>
  <path d="M372,146 C355,130 389,130 372,146" stroke="#ca8a04" stroke-width="1.5" fill="none" marker-end="url(#arr)"/>
  <line x1="436" y1="165" x2="452" y2="165" stroke="#444" stroke-width="1.5" marker-end="url(#arr)"/>
  <rect x="458" y="146" width="128" height="38" rx="4" fill="#fef08a" stroke="#ca8a04" stroke-width="1.5"/>
  <text x="522" y="162" text-anchor="middle" dominant-baseline="middle" font-size="9.5">iREF</text>
  <text x="522" y="176" text-anchor="middle" dominant-baseline="middle" font-size="8.5" fill="#666">reflection</text>

  <!-- Module 4: Clustering (green) -->
  <text x="2"   y="209" dominant-baseline="middle" font-size="9" fill="#555">Wk 7–8</text>
  <text x="2"   y="222" dominant-baseline="middle" font-size="9" fill="#555" font-style="italic">Clustering</text>
  <rect x="158" y="196" width="128" height="38" rx="4" fill="#bbf7d0" stroke="#16a34a" stroke-width="1.5"/>
  <text x="222" y="212" text-anchor="middle" dominant-baseline="middle" font-size="9.5">iRAT / tRAT</text>
  <text x="222" y="226" text-anchor="middle" dominant-baseline="middle" font-size="8.5" fill="#666">readiness</text>
  <line x1="286" y1="215" x2="302" y2="215" stroke="#444" stroke-width="1.5" marker-end="url(#arr)"/>
  <rect x="308" y="196" width="128" height="38" rx="4" fill="#bbf7d0" stroke="#16a34a" stroke-width="1.5"/>
  <text x="372" y="212" text-anchor="middle" dominant-baseline="middle" font-size="9.5">tAPP</text>
  <text x="372" y="226" text-anchor="middle" dominant-baseline="middle" font-size="8.5" fill="#666">team application</text>
  <path d="M372,196 C355,180 389,180 372,196" stroke="#16a34a" stroke-width="1.5" fill="none" marker-end="url(#arr)"/>
  <line x1="436" y1="215" x2="452" y2="215" stroke="#444" stroke-width="1.5" marker-end="url(#arr)"/>
  <rect x="458" y="196" width="128" height="38" rx="4" fill="#bbf7d0" stroke="#16a34a" stroke-width="1.5"/>
  <text x="522" y="212" text-anchor="middle" dominant-baseline="middle" font-size="9.5">iREF</text>
  <text x="522" y="226" text-anchor="middle" dominant-baseline="middle" font-size="8.5" fill="#666">reflection</text>

  <!-- Module 5: Process Mining (purple) -->
  <text x="2"   y="259" dominant-baseline="middle" font-size="9" fill="#555">Wk 9–10</text>
  <text x="2"   y="272" dominant-baseline="middle" font-size="9" fill="#555" font-style="italic">Process Mining</text>
  <rect x="158" y="246" width="128" height="38" rx="4" fill="#e9d5ff" stroke="#7c3aed" stroke-width="1.5"/>
  <text x="222" y="262" text-anchor="middle" dominant-baseline="middle" font-size="9.5">iRAT / tRAT</text>
  <text x="222" y="276" text-anchor="middle" dominant-baseline="middle" font-size="8.5" fill="#666">readiness</text>
  <line x1="286" y1="265" x2="302" y2="265" stroke="#444" stroke-width="1.5" marker-end="url(#arr)"/>
  <rect x="308" y="246" width="128" height="38" rx="4" fill="#e9d5ff" stroke="#7c3aed" stroke-width="1.5"/>
  <text x="372" y="262" text-anchor="middle" dominant-baseline="middle" font-size="9.5">tAPP</text>
  <text x="372" y="276" text-anchor="middle" dominant-baseline="middle" font-size="8.5" fill="#666">team application</text>
  <path d="M372,246 C355,230 389,230 372,246" stroke="#7c3aed" stroke-width="1.5" fill="none" marker-end="url(#arr)"/>
  <line x1="436" y1="265" x2="452" y2="265" stroke="#444" stroke-width="1.5" marker-end="url(#arr)"/>
  <rect x="458" y="246" width="128" height="38" rx="4" fill="#e9d5ff" stroke="#7c3aed" stroke-width="1.5"/>
  <text x="522" y="262" text-anchor="middle" dominant-baseline="middle" font-size="9.5">iREF</text>
  <text x="522" y="276" text-anchor="middle" dominant-baseline="middle" font-size="8.5" fill="#666">reflection</text>

  <!-- ── Dashed arrows → Capstone ───────────────────────── -->
  <!-- From each tAPP right edge to capstone top-left -->
  <path d="M436,65  C560,65  560,295 380,311" stroke="#888" stroke-width="1.2" stroke-dasharray="5,3" fill="none" marker-end="url(#arr-dash)"/>
  <path d="M436,115 C555,115 555,298 380,311" stroke="#888" stroke-width="1.2" stroke-dasharray="5,3" fill="none" marker-end="url(#arr-dash)"/>
  <path d="M436,165 C550,165 550,300 380,311" stroke="#888" stroke-width="1.2" stroke-dasharray="5,3" fill="none" marker-end="url(#arr-dash)"/>
  <path d="M436,215 C545,215 545,302 380,311" stroke="#888" stroke-width="1.2" stroke-dasharray="5,3" fill="none" marker-end="url(#arr-dash)"/>
  <path d="M436,265 C540,265 540,304 380,311" stroke="#888" stroke-width="1.2" stroke-dasharray="5,3" fill="none" marker-end="url(#arr-dash)"/>
  <!-- From each iREF right edge to capstone right side -->
  <path d="M586,65  C640,65  640,315 442,326" stroke="#888" stroke-width="1.2" stroke-dasharray="5,3" fill="none" marker-end="url(#arr-dash)"/>
  <path d="M586,115 C638,115 638,318 442,329" stroke="#888" stroke-width="1.2" stroke-dasharray="5,3" fill="none" marker-end="url(#arr-dash)"/>
  <path d="M586,165 C636,165 636,320 442,332" stroke="#888" stroke-width="1.2" stroke-dasharray="5,3" fill="none" marker-end="url(#arr-dash)"/>
  <path d="M586,215 C634,215 634,323 442,335" stroke="#888" stroke-width="1.2" stroke-dasharray="5,3" fill="none" marker-end="url(#arr-dash)"/>
  <path d="M586,265 C632,265 632,325 442,338" stroke="#888" stroke-width="1.2" stroke-dasharray="5,3" fill="none" marker-end="url(#arr-dash)"/>

  <!-- ── Capstone row (blue) ──────────────────────────── -->
  <text x="2"   y="324" dominant-baseline="middle" font-size="9" fill="#555">Wk 11–14</text>
  <text x="2"   y="337" dominant-baseline="middle" font-size="9" fill="#555" font-style="italic">Capstone</text>
  <rect x="308" y="311" width="128" height="38" rx="4" fill="#bfdbfe" stroke="#2563eb" stroke-width="1.5"/>
  <text x="372" y="327" text-anchor="middle" dominant-baseline="middle" font-size="9.5">tCAP</text>
  <text x="372" y="341" text-anchor="middle" dominant-baseline="middle" font-size="8.5" fill="#666">team capstone</text>
  <path d="M372,311 C355,295 389,295 372,311" stroke="#2563eb" stroke-width="1.5" fill="none" marker-end="url(#arr)"/>
  <line x1="436" y1="330" x2="452" y2="330" stroke="#444" stroke-width="1.5" marker-end="url(#arr)"/>
  <rect x="458" y="311" width="128" height="38" rx="4" fill="#bfdbfe" stroke="#2563eb" stroke-width="1.5"/>
  <text x="522" y="327" text-anchor="middle" dominant-baseline="middle" font-size="9.5">iCAP</text>
  <text x="522" y="341" text-anchor="middle" dominant-baseline="middle" font-size="8.5" fill="#666">reflection</text>

</svg>
